<svg xmlns="http://www.w3.org/2000/svg" viewBox="0 0 485.67 342.03"><defs><style>.cls-1{font-size:115.51px;font-family:BaskOldFace, Baskerville Old Face;}</style></defs><g id="Layer_2" data-name="Layer 2"><g id="Layer_1-2" data-name="Layer 1"><path d="M358,132.36c-.46.53-.76.89-1.09,1.22q-38.06,37.68-76.12,75.36L250,239.47c-2,2-4,4-6,5.94a1.65,1.65,0,0,1-2.31,0l-6-5.94q-15.4-15.27-30.84-30.53-38.06-37.66-76.11-75.36c-.33-.33-.63-.69-1.1-1.22,2.42-2.37,4.69-4.58,7.06-6.91.33.28.74.6,1.12,1l98.82,97.86c2.36,2.32,4.71,4.66,7.06,7a1.65,1.65,0,0,0,2.31,0l7-7q49.44-48.93,98.84-97.86c.36-.37.77-.69,1.1-1C353.36,127.78,355.63,130,358,132.36Z"/><path d="M14.61,260.78l1.94,1.29a222.57,222.57,0,0,0-16,40.07c-.15-1.61-.35-3.21-.43-4.82S0,293.89,0,292.18s.08-3.42.22-5.12c1.5-17.81,7.51-34.23,15.49-50C27,214.82,41.57,194.92,57.9,176.24a414.26,414.26,0,0,1,52-49.82c.54-.44,1.1-.84,1.69-1.29l6.3,6.47c-2.54,1.09-2.28,3.47-2.1,5.71a3.25,3.25,0,0,1-1.51,3.08C93.73,157,74.41,174.92,57.15,195c-16.57,19.25-30.85,40-41.41,63.19C15.36,259,15,259.84,14.61,260.78Z"/><path d="M115.53,142.51c2.19,5.51,4.28,10.74,6.46,16.21-43.67,20.81-76.41,54-101.36,95.41C43,209,77.37,174,115.53,142.51Z"/><path d="M471.06,260.78l-1.95,1.29a222.6,222.6,0,0,1,16.05,40.07c.15-1.61.35-3.21.43-4.82s.09-3.43.06-5.14-.08-3.42-.22-5.12c-1.51-17.81-7.52-34.23-15.5-50-11.23-22.22-25.83-42.12-42.16-60.8a414.34,414.34,0,0,0-52-49.82c-.54-.44-1.1-.84-1.69-1.29l-6.29,6.47c2.54,1.09,2.28,3.47,2.09,5.71a3.28,3.28,0,0,0,1.52,3.08C391.94,157,411.25,174.92,428.52,195c16.57,19.25,30.85,40,41.4,63.19C470.3,259,470.66,259.84,471.06,260.78Z"/><path d="M370.14,142.51l-6.47,16.21c43.67,20.81,76.42,54,101.36,95.41C442.65,209,408.3,174,370.14,142.51Z"/><path d="M349.88,121.68a16.55,16.55,0,0,0,1.16,1.46c3.07,3.09,6.17,6.14,9.21,9.25,1.06,1.09,1.95,1.31,3.12.12q4.9-5,9.93-9.84c1.07-1,1.12-1.87.05-2.93-3.21-3.16-6.37-6.37-9.54-9.57-.91-.92-1.84-1.14-2.82-.16q-5.19,5.19-10.34,10.41A6.54,6.54,0,0,0,349.88,121.68Z"/><path d="M135.32,121.68a16.55,16.55,0,0,1-1.16,1.46c-3.07,3.09-6.17,6.14-9.21,9.25-1.07,1.09-2,1.31-3.12.12q-4.9-5-9.93-9.84c-1.07-1-1.13-1.87-.05-2.93,3.2-3.16,6.37-6.37,9.54-9.57.91-.92,1.83-1.14,2.82-.16q5.19,5.19,10.34,10.41A6.54,6.54,0,0,1,135.32,121.68Z"/><path d="M143.47,86.87a2.57,2.57,0,0,1,.92-3.18h0a202.63,202.63,0,0,1-14.66-36.61c-.14,1.47-.33,2.93-.4,4.4s-.08,3.13-.05,4.69.07,3.13.2,4.69c1.37,16.27,6.87,31.28,14.16,45.71,10.26,20.31,23.61,38.49,38.53,55.56a379.4,379.4,0,0,0,47.52,45.53c.49.4,1,.77,1.54,1.18L234,206a4.69,4.69,0,0,0,1.19-4.8,8.23,8.23,0,0,1-.16-3.45,3,3,0,0,0-1.38-2.81c-18.77-15.19-36.42-31.56-52.2-49.88-15.15-17.58-28.2-36.55-37.84-57.75Z"/><path d="M234.84,193c2-5,3.92-9.82,5.91-14.82-39.91-19-69.84-49.31-92.63-87.19C168.57,132.24,200,164.2,234.84,193Z"/><path d="M342.91,86.87a2.58,2.58,0,0,0-.92-3.18h0a204.1,204.1,0,0,0,14.66-36.61c.14,1.47.32,2.93.4,4.4s.08,3.13.05,4.69-.07,3.13-.2,4.69c-1.38,16.27-6.87,31.28-14.17,45.71-10.26,20.31-23.6,38.49-38.53,55.56a378,378,0,0,1-47.52,45.53c-.49.4-1,.77-1.54,1.18l-2.8-2.88a4.67,4.67,0,0,1-1.19-4.8,8.41,8.41,0,0,0,.15-3.45,3,3,0,0,1,1.39-2.81c18.77-15.19,36.42-31.56,52.2-49.88,15.14-17.58,28.19-36.55,37.84-57.75Z"/><path d="M251.54,193c-2-5-3.92-9.82-5.91-14.82,39.91-19,69.83-49.31,92.63-87.19C317.8,132.24,286.41,164.2,251.54,193Z"/><rect x="234.61" y="204.13" width="16.81" height="16.81" rx="1" transform="translate(221.46 -109.58) rotate(45)"/><text class="cls-1" transform="translate(58.94 311.63)">XIcoder</text><path d="M326.25,8.05S301.08,31.8,282,7.11C277,.67,246.53.05,243.29,0c0,0,5.37,5,1.77,9.33s10.65,12.58,8.57,20c0,0,3.43-2.53,2.2-6.07,0,0,8.11,11.13-2,19.11-5.38,4.26-7.76,5.28-8.76,7.39-3.9-3.22-1.67-7.6-.57-10.53a6,6,0,0,0-1-5.84c2.6,5.38-5.58,7-6.2,13.59-.23,2.44,2.25,4.6,4.36,6-5.75-2.21-20.27-9-12.29-19a10.23,10.23,0,0,0,1.82-9.83s4.6,3.49,3.85,7.37c0,0,4-5.62.3-13.5S248,8.42,243.29,0H243s-33.75.31-39,7.11c-19.06,24.69-44.25.94-44.25.94S157.36,36.34,168.11,78c12.06,46.74,41.15,69,74.9,88.6-1.33-9-2.51-18-3.69-27-.59-4.49-1.11-9-1.69-13.49l-.83-6.75-.79-6.75-1.57-13.52L233,85.6c-.5-4.46-1-8.91-1.46-13.37h4.18c.42,4.31.78,8.63,1.18,13l1.21,13.55,1.13,13.55.56,6.79.51,6.78c.34,4.53.72,9,1,13.57.64,9.05,1.26,18.1,1.74,27.16.47-9.06,1.1-18.11,1.74-27.16.29-4.54.67-9,1-13.57l.51-6.78.56-6.79L248,98.73l1.21-13.55c.4-4.32.77-8.64,1.18-13h4.16c-.45,4.46-1,8.91-1.44,13.37l-1.49,13.51L250,112.63l-.79,6.75-.83,6.75c-.56,4.49-1.1,9-1.69,13.49-1.16,9-2.34,18-3.67,27C276.74,147,305.83,124.72,317.89,78,328.66,36.34,326.25,8.05,326.25,8.05ZM199.36,72.57a4.13,4.13,0,0,0-1.32.23,2.21,2.21,0,0,0-.92.59,2.66,2.66,0,0,0-.69,1.61,15,15,0,0,0-.1,1.75V87.37a12.87,12.87,0,0,0,.12,1.89,3.43,3.43,0,0,0,.37,1.11,2.46,2.46,0,0,0,1,.85,4.24,4.24,0,0,0,1.57.35v.32h-9.21v-.32a4.78,4.78,0,0,0,1.35-.25,2.47,2.47,0,0,0,.9-.59,2.3,2.3,0,0,0,.62-1.16,10,10,0,0,0,.17-2.2V76.75a9.69,9.69,0,0,0-.17-2.18,2.32,2.32,0,0,0-.62-1.18,2.14,2.14,0,0,0-.9-.59,4.33,4.33,0,0,0-1.35-.23v-.34h9.21Zm22.06,19.32h-10v-.32a5,5,0,0,0,1.69-.41,1.33,1.33,0,0,0,.86-1.22,1.38,1.38,0,0,0-.18-.62,6.71,6.71,0,0,0-.64-1.08l-3.5-5.33-3.44,4.17a11.41,11.41,0,0,0-1.14,1.6,2.84,2.84,0,0,0-.32,1.2,1.38,1.38,0,0,0,.57,1.2,3.27,3.27,0,0,0,1.74.49v.32h-7v-.32a4.82,4.82,0,0,0,1.31-.41,5.62,5.62,0,0,0,1.25-.94A39.12,39.12,0,0,0,205.54,87l3.74-4.57-4.46-6.71-.77-1.11A5.45,5.45,0,0,0,202.64,73a4.06,4.06,0,0,0-1.75-.42,3.73,3.73,0,0,1-.43,0v-.34H210v.34a4.91,4.91,0,0,0-1.52.17,1,1,0,0,0-.87,1,5.36,5.36,0,0,0,1.18,2.51L211.26,80l2.2-2.72A21.91,21.91,0,0,0,215.15,75a2.31,2.31,0,0,0,.39-1.18,1.08,1.08,0,0,0-.8-1,4.58,4.58,0,0,0-1.31-.2v-.34H220v.34a4,4,0,0,0-1.7.28,8.73,8.73,0,0,0-2.49,2.39l-1.09,1.38-3.13,3.88,4.95,7.36A13.6,13.6,0,0,0,219,90.7a4.13,4.13,0,0,0,1.08.64,6.25,6.25,0,0,0,1.39.23Zm9.84-22-.36-3.46h4.21l.34,3.46Zm23.5,0h-4.19l.34-3.46h4.21Zm1.18-11.38-.47,4.61h-4.25l.26-2.62H234.54l.26,2.62h-4.25l-.47-4.61-.25-2.41h2.36l10.82,0,10.82,0,2.36,0ZM287,91.89H277v-.32a5.18,5.18,0,0,0,1.71-.41,1.33,1.33,0,0,0,.86-1.22,1.38,1.38,0,0,0-.18-.62,8.71,8.71,0,0,0-.64-1.08l-3.52-5.33-3.42,4.17a10.35,10.35,0,0,0-1.14,1.62,2.6,2.6,0,0,0-.34,1.18,1.39,1.39,0,0,0,.59,1.2,3.25,3.25,0,0,0,1.74.49v.32h-7v-.32a5,5,0,0,0,1.33-.41,6.08,6.08,0,0,0,1.23-.94A32.94,32.94,0,0,0,271.12,87l3.75-4.57-4.46-6.71-.77-1.11A5.6,5.6,0,0,0,268.23,73a4.1,4.1,0,0,0-1.75-.42,4,4,0,0,1-.44,0v-.34h9.49v.34a5.11,5.11,0,0,0-1.53.17,1,1,0,0,0-.85,1,5.36,5.36,0,0,0,1.18,2.51L276.84,80l2.21-2.72A23.38,23.38,0,0,0,280.74,75a2.28,2.28,0,0,0,.37-1.19,1.05,1.05,0,0,0-.8-1,4.45,4.45,0,0,0-1.31-.2v-.34h6.62v.34a3.93,3.93,0,0,0-1.7.28,8.48,8.48,0,0,0-2.49,2.39l-1.1,1.38L277.2,80.5l5,7.36a13,13,0,0,0,2.38,2.84,3.93,3.93,0,0,0,1.07.64,6.25,6.25,0,0,0,1.4.23Zm9.92-19.32a4.21,4.21,0,0,0-1.34.23,2.39,2.39,0,0,0-.92.61A2.79,2.79,0,0,0,294,75c-.05.51-.08,1.1-.08,1.75V87.37a11.8,11.8,0,0,0,.11,1.89,3.2,3.2,0,0,0,.38,1.11,2.27,2.27,0,0,0,1,.85,4.19,4.19,0,0,0,1.57.35v.32h-9.21v-.32a4.77,4.77,0,0,0,1.34-.25,2.6,2.6,0,0,0,.91-.59,2.46,2.46,0,0,0,.62-1.16,11.62,11.62,0,0,0,.16-2.2V76.75a11.23,11.23,0,0,0-.16-2.18,2.33,2.33,0,0,0-.62-1.16,2.29,2.29,0,0,0-.91-.61,4.32,4.32,0,0,0-1.34-.23v-.34h9.21Z"/></g></g></svg>